<mxfile host="app.diagrams.net" modified="2023-09-12T08:14:55.011Z" agent="Mozilla/5.0 (Windows NT 10.0; WOW64) AppleWebKit/537.36 (KHTML, like Gecko) Chrome/103.0.0.0 Safari/537.36" version="21.7.4" etag="VpHQPeCkR-ZvxOjaWa7H" type="github">
  <diagram name="第 1 页" id="cGHIPG8kyKx-vIz42HQ3">
    <mxGraphModel>
      <root>
        <mxCell id="0" />
        <mxCell id="1" parent="0" />
      </root>
    </mxGraphModel>
  </diagram>
</mxfile>
